<?xml version="1.0" standalone="no"?>
<!DOCTYPE svg PUBLIC "-//W3C//DTD SVG 20010904//EN"
 "http://www.w3.org/TR/2001/REC-SVG-20010904/DTD/svg10.dtd">
<svg version="1.0" xmlns="http://www.w3.org/2000/svg"
 width="320.000000pt" height="320.000000pt" viewBox="0 0 320.000000 320.000000"
 preserveAspectRatio="xMidYMid meet">

<g transform="translate(0.000000,320.000000) scale(0.100000,-0.100000)"
fill="#000000" stroke="none">
<path d="M1385 2813 c-92 -14 -201 -48 -285 -89 -171 -84 -292 -233 -333 -409
-16 -69 -9 -101 25 -114 13 -5 106 -17 207 -27 l183 -18 19 23 c10 12 23 40
29 61 19 70 69 132 134 165 53 27 69 30 145 30 68 -1 95 -5 126 -22 90 -47
116 -104 123 -260 l4 -112 -33 -5 c-19 -3 -83 -10 -144 -16 -509 -51 -750
-184 -852 -470 -34 -98 -44 -287 -19 -393 36 -153 125 -270 257 -336 100 -50
189 -66 334 -58 192 10 332 72 473 207 30 29 55 50 56 48 104 -151 198 -248
239 -248 26 0 45 14 226 169 144 124 145 129 75 227 -25 36 -57 90 -72 122
l-27 57 -6 495 c-5 467 -7 499 -27 574 -28 100 -60 156 -132 226 -66 65 -170
120 -286 151 -63 17 -113 22 -244 24 -91 2 -178 1 -195 -2z m372 -1215 c-6
-178 -24 -252 -85 -338 -119 -173 -337 -180 -417 -15 -48 97 -36 249 25 338
67 98 231 160 434 166 l49 1 -6 -152z"/>
</g>
</svg>
